<svg width="24" height="24" viewBox="0 0 24 24" fill="none" xmlns="http://www.w3.org/2000/svg">
<path d="M5.11541 20.4998C4.6183 20.4998 4.19274 20.3228 3.83874 19.9688C3.48474 19.6148 3.30774 19.1892 3.30774 18.6921V5.30756C3.30774 4.81044 3.48474 4.38488 3.83874 4.03088C4.19274 3.67687 4.6183 3.49986 5.11541 3.49986H13.0577C13.2702 3.49986 13.4483 3.57177 13.5921 3.71558C13.7358 3.8594 13.8077 4.0376 13.8077 4.25018C13.8077 4.46278 13.7358 4.64088 13.5921 4.78446C13.4483 4.92804 13.2702 4.99983 13.0577 4.99983H5.11541C5.02566 4.99983 4.95194 5.02868 4.89424 5.08638C4.83654 5.14408 4.80769 5.21781 4.80769 5.30756V18.6921C4.80769 18.7819 4.83654 18.8556 4.89424 18.9133C4.95194 18.971 5.02566 18.9998 5.11541 18.9998H18.5C18.5897 18.9998 18.6635 18.971 18.7211 18.9133C18.7788 18.8556 18.8077 18.7819 18.8077 18.6921V10.7498C18.8077 10.5373 18.8796 10.3592 19.0234 10.2155C19.1672 10.0717 19.3454 9.99983 19.558 9.99983C19.7706 9.99983 19.9487 10.0717 20.0923 10.2155C20.2359 10.3592 20.3077 10.5373 20.3077 10.7498V18.6921C20.3077 19.1892 20.1307 19.6148 19.7766 19.9688C19.4226 20.3228 18.9971 20.4998 18.5 20.4998H5.11541ZM17.1923 6.61518H15.9423C15.7298 6.61518 15.5517 6.54328 15.408 6.39948C15.2642 6.25567 15.1923 6.07747 15.1923 5.86488C15.1923 5.65228 15.2642 5.47419 15.408 5.33061C15.5517 5.18703 15.7298 5.11523 15.9423 5.11523H17.1923V3.86521C17.1923 3.65271 17.2642 3.47458 17.4081 3.33083C17.5519 3.1871 17.7301 3.11523 17.9427 3.11523C18.1552 3.11523 18.3333 3.1871 18.4769 3.33083C18.6205 3.47458 18.6923 3.65271 18.6923 3.86521V5.11523H19.9423C20.1548 5.11523 20.3329 5.18713 20.4767 5.33093C20.6204 5.47475 20.6923 5.65295 20.6923 5.86553C20.6923 6.07813 20.6204 6.25623 20.4767 6.39981C20.3329 6.54339 20.1548 6.61518 19.9423 6.61518H18.6923V7.86521C18.6923 8.07771 18.6204 8.25583 18.4766 8.39958C18.3328 8.54332 18.1546 8.61518 17.942 8.61518C17.7294 8.61518 17.5513 8.54332 17.4077 8.39958C17.2641 8.25583 17.1923 8.07771 17.1923 7.86521V6.61518ZM11.0385 16.0191L9.40001 13.9191C9.30643 13.805 9.18752 13.7479 9.04329 13.7479C8.89906 13.7479 8.78015 13.8082 8.68656 13.9287L7.10966 16.0267C6.98915 16.1806 6.97328 16.3396 7.06206 16.5037C7.15085 16.6678 7.28402 16.7498 7.46159 16.7498H16.2307C16.4083 16.7498 16.5415 16.6678 16.6302 16.5037C16.719 16.3396 16.7064 16.1806 16.5923 16.0267L14.2077 12.8326C14.1141 12.712 13.9936 12.6518 13.8461 12.6518C13.6987 12.6518 13.578 12.7129 13.4839 12.835L11.0385 16.0191Z" fill="#6E6E82"/>
</svg>
