<svg width="34" height="34" viewBox="0 0 34 34" fill="none" xmlns="http://www.w3.org/2000/svg">
<g id="icon">
<path id="Vector" d="M7.24642 29.0422C6.54217 29.0422 5.9393 28.7914 5.4378 28.2899C4.9363 27.7884 4.68555 27.1855 4.68555 26.4813V7.51986C4.68555 6.81561 4.9363 6.21273 5.4378 5.71123C5.9393 5.20971 6.54217 4.95895 7.24642 4.95895H18.498C18.7991 4.95895 19.0514 5.06082 19.255 5.26456C19.4587 5.4683 19.5605 5.72075 19.5605 6.02191C19.5605 6.32309 19.4587 6.57539 19.255 6.7788C19.0514 6.98221 18.7991 7.08391 18.498 7.08391H7.24642C7.11927 7.08391 7.01483 7.12478 6.93309 7.20652C6.85135 7.28826 6.81048 7.39271 6.81048 7.51986V26.4813C6.81048 26.6084 6.85135 26.7129 6.93309 26.7946C7.01483 26.8764 7.11927 26.9172 7.24642 26.9172H26.2079C26.335 26.9172 26.4395 26.8764 26.5212 26.7946C26.6029 26.7129 26.6438 26.6084 26.6438 26.4813V15.2297C26.6438 14.9287 26.7457 14.6764 26.9494 14.4727C27.1531 14.2691 27.4056 14.1672 27.7068 14.1672C28.0079 14.1672 28.2602 14.2691 28.4636 14.4727C28.6671 14.6764 28.7688 14.9287 28.7688 15.2297V26.4813C28.7688 27.1855 28.518 27.7884 28.0165 28.2899C27.515 28.7914 26.9121 29.0422 26.2079 29.0422H7.24642ZM24.3554 9.37232H22.5845C22.2835 9.37232 22.0312 9.27047 21.8275 9.06675C21.6239 8.86301 21.5221 8.61056 21.5221 8.3094C21.5221 8.00822 21.6239 7.75592 21.8275 7.55251C22.0312 7.3491 22.2835 7.2474 22.5845 7.2474H24.3554V5.47653C24.3554 5.17548 24.4573 4.92314 24.661 4.71949C24.8647 4.51587 25.1172 4.41406 25.4184 4.41406C25.7195 4.41406 25.9718 4.51587 26.1752 4.71949C26.3786 4.92314 26.4803 5.17548 26.4803 5.47653V7.2474H28.2512C28.5522 7.2474 28.8046 7.34925 29.0082 7.55297C29.2119 7.75671 29.3137 8.00916 29.3137 8.31032C29.3137 8.6115 29.2119 8.8638 29.0082 9.06721C28.8046 9.27062 28.5522 9.37232 28.2512 9.37232H26.4803V11.1432C26.4803 11.4442 26.3785 11.6966 26.1748 11.9002C25.971 12.1038 25.7186 12.2057 25.4174 12.2057C25.1162 12.2057 24.8639 12.1038 24.6605 11.9002C24.4571 11.6966 24.3554 11.4442 24.3554 11.1432V9.37232ZM15.6374 22.6945L13.3163 19.7195C13.1837 19.5579 13.0152 19.4771 12.8109 19.4771C12.6066 19.4771 12.4381 19.5624 12.3055 19.7332L10.0716 22.7054C9.90088 22.9233 9.8784 23.1485 10.0042 23.381C10.13 23.6135 10.3186 23.7297 10.5702 23.7297H22.9931C23.2447 23.7297 23.4333 23.6135 23.5591 23.381C23.6849 23.1485 23.6669 22.9233 23.5053 22.7054L20.1271 18.1803C19.9945 18.0095 19.8238 17.9242 19.6149 17.9242C19.4061 17.9242 19.235 18.0107 19.1018 18.1838L15.6374 22.6945Z" fill="#6E6E82"/>
</g>
</svg>
