<svg width="20" height="20" viewBox="0 0 20 20" fill="none" xmlns="http://www.w3.org/2000/svg">
<g id="icon">
<path id="Vector" d="M10 11.0246L5.06785 15.9567C4.93324 16.0914 4.76404 16.1602 4.56025 16.1633C4.35647 16.1665 4.18416 16.0976 4.04332 15.9567C3.90246 15.8159 3.83203 15.6451 3.83203 15.4445C3.83203 15.2438 3.90246 15.073 4.04332 14.9322L8.97548 10L4.04332 5.06785C3.9087 4.93324 3.83983 4.76404 3.83672 4.56025C3.83359 4.35647 3.90246 4.18416 4.04332 4.04332C4.18416 3.90246 4.35492 3.83203 4.55558 3.83203C4.75625 3.83203 4.927 3.90246 5.06785 4.04332L10 8.97547L14.9322 4.04332C15.0668 3.9087 15.236 3.83983 15.4398 3.83672C15.6436 3.83359 15.8159 3.90246 15.9567 4.04332C16.0976 4.18416 16.168 4.35492 16.168 4.55558C16.168 4.75625 16.0976 4.927 15.9567 5.06785L11.0246 10L15.9567 14.9322C16.0914 15.0668 16.1602 15.236 16.1633 15.4398C16.1665 15.6436 16.0976 15.8159 15.9567 15.9567C15.8159 16.0976 15.6451 16.168 15.4445 16.168C15.2438 16.168 15.0731 16.0976 14.9322 15.9567L10 11.0246Z" fill="#F1F1F5"/>
</g>
</svg>
