<svg width="34" height="28" viewBox="0 0 34 28" fill="none" xmlns="http://www.w3.org/2000/svg">
<path fill-rule="evenodd" clip-rule="evenodd" d="M2 0C0.895431 0 0 0.895428 0 2V21.0966C0 22.2012 0.895431 23.0966 2 23.0966H26.7159L32.3646 27.7679C33.0166 28.307 34.0019 27.8433 34.0019 26.9973L34.0022 21.1296C34.0023 21.1186 34.0024 21.1076 34.0024 21.0966V2C34.0024 0.895431 33.107 0 32.0024 0H2ZM6.66686 10.043C7.21914 10.043 7.66686 10.4907 7.66686 11.043V11.3986C7.66686 12.4633 8.40427 13.6778 10.1297 14.7011C11.8224 15.705 14.2488 16.3694 17.0009 16.3694C19.7529 16.3694 22.1793 15.705 23.872 14.7011C25.5974 13.6778 26.3349 12.4633 26.3349 11.3986V11.043C26.3349 10.4907 26.7826 10.043 27.3349 10.043H28.0017C28.554 10.043 29.0017 10.4907 29.0017 11.043V11.3986C29.0017 13.828 27.3511 15.7767 25.2157 17.0431C23.0476 18.329 20.1402 19.0808 17.0009 19.0808C13.8615 19.0808 10.9541 18.329 8.78597 17.0431C6.65058 15.7767 5 13.828 5 11.3986V11.043C5 10.4907 5.44772 10.043 6 10.043H6.66686Z" fill="url(#paint0_linear_1902_553)"/>
<defs>
<linearGradient id="paint0_linear_1902_553" x1="0" y1="0" x2="34.675" y2="0.859382" gradientUnits="userSpaceOnUse">
<stop stop-color="#5097FA"/>
<stop offset="1" stop-color="#5363FF"/>
</linearGradient>
</defs>
</svg>
