<svg width="32" height="32" viewBox="0 0 32 32" fill="none" xmlns="http://www.w3.org/2000/svg">
<path d="M15.9993 23.1773L16.2568 23.332L22.9964 27.3803C23.17 27.4807 23.3179 27.5094 23.4511 27.4972C23.6158 27.482 23.7595 27.4284 23.8912 27.3343L15.9993 23.1773ZM15.9993 23.1773L15.7419 23.332M15.9993 23.1773L15.7419 23.332M15.7419 23.332L9.00235 27.3802C8.82868 27.4807 8.68082 27.5094 8.54762 27.4972C8.38291 27.482 8.23922 27.4284 8.10749 27.3343C7.97524 27.2398 7.87188 27.1166 7.7958 26.9552L7.79578 26.9552M15.7419 23.332L7.79578 26.9552M7.79578 26.9552C7.74155 26.8402 7.72384 26.7023 7.77354 26.5145L7.77374 26.5146M7.79578 26.9552L7.77374 26.5146M7.77374 26.5146L7.77696 26.5009M7.77374 26.5146L7.77696 26.5009M7.77696 26.5009L9.56678 18.8752L9.63602 18.5802M7.77696 26.5009L9.63602 18.5802M9.63602 18.5802L9.4065 18.3823M9.63602 18.5802L9.4065 18.3823M9.4065 18.3823L3.45465 13.2506M9.4065 18.3823L3.45465 13.2506M12.0729 11.126L11.7731 11.1521L3.93428 11.8345C3.70221 11.872 3.5635 11.9419 3.48071 12.0134C3.37315 12.1063 3.28328 12.2314 3.21636 12.4028L12.0729 11.126ZM12.0729 11.126L12.1902 10.849M12.0729 11.126L12.1902 10.849M12.1902 10.849L15.2399 3.64827L15.2399 3.64828M12.1902 10.849L15.2399 3.64828M15.2399 3.64828L15.2413 3.64488M15.2399 3.64828L15.2413 3.64488M15.2413 3.64488C15.3151 3.46699 15.414 3.36063 15.5317 3.29359L15.2413 3.64488ZM16.7574 3.64489L16.7574 3.64488C16.6836 3.46699 16.5847 3.36063 16.467 3.29359L16.7574 3.64489ZM16.7574 3.64489L16.7588 3.64827M16.7574 3.64489L16.7588 3.64827M16.7588 3.64827L19.8085 10.849L19.9258 11.126M16.7588 3.64827L19.9258 11.126M19.9258 11.126L20.2256 11.1521M19.9258 11.126L20.2256 11.1521M20.2256 11.1521L28.0644 11.8345M20.2256 11.1521L28.0644 11.8345M22.3627 18.5802L22.5922 18.3823L28.544 13.2506C28.5442 13.2505 28.5443 13.2504 28.5445 13.2503C28.6981 13.117 28.7768 12.9817 28.8103 12.8424C28.8479 12.6867 28.8378 12.5449 28.7824 12.4028L22.3627 18.5802ZM22.3627 18.5802L22.4319 18.8752M22.3627 18.5802L22.4319 18.8752M22.4319 18.8752L24.2217 26.5009L24.2215 26.5009M22.4319 18.8752L24.2215 26.5009M24.2215 26.5009L24.2252 26.5145M24.2215 26.5009L24.2252 26.5145M24.2252 26.5145C24.2749 26.7023 24.2571 26.8402 24.2029 26.9552L24.2029 26.9552M24.2252 26.5145L24.2029 26.9552M24.2029 26.9552C24.1268 27.1166 24.0235 27.2397 23.8912 27.3343L24.2029 26.9552ZM3.45465 13.2506C3.45452 13.2505 3.45439 13.2504 3.45426 13.2503M3.45465 13.2506L3.45426 13.2503M3.45426 13.2503C3.30058 13.117 3.22193 12.9817 3.18835 12.8424L3.45426 13.2503ZM28.0644 11.8345C28.2965 11.872 28.4352 11.9419 28.518 12.0134C28.6255 12.1063 28.7154 12.2314 28.7823 12.4028L28.0644 11.8345ZM3.18835 12.8424C3.15081 12.6867 3.16087 12.5449 3.21635 12.4028L3.18835 12.8424ZM15.5318 3.29356C15.6846 3.20662 15.838 3.1665 15.9993 3.1665C16.1607 3.1665 16.3141 3.20662 16.4669 3.29356H15.5318Z" stroke="#FFC83C"/>
</svg>
