<svg width="166" height="28" viewBox="0 0 166 28" fill="none" xmlns="http://www.w3.org/2000/svg">
<path d="M45.6004 20.085C45.4899 20.085 45.4004 19.9955 45.4004 19.885V4.82034C45.4004 4.70988 45.4899 4.62034 45.6004 4.62034H47.641C47.7114 4.62034 47.7767 4.6574 47.8127 4.7179L54.3067 15.6071C54.3862 15.7404 54.2901 15.9096 54.1349 15.9096H53.6041C53.4496 15.9096 53.3534 15.7417 53.4316 15.6084L59.8195 4.71914C59.8554 4.65794 59.921 4.62034 59.992 4.62034H62.0319C62.1422 4.62034 62.2317 4.70971 62.2319 4.82005L62.2533 19.8847C62.2535 19.9953 62.1639 20.085 62.0533 20.085H59.747C59.6367 20.085 59.5472 19.9957 59.547 19.8854L59.5258 9.08457C59.5256 8.97396 59.6152 8.88417 59.7258 8.88417H59.7451C59.9004 8.88417 59.9964 9.05339 59.9168 9.1867L54.5232 18.2202C54.4871 18.2806 54.4219 18.3176 54.3515 18.3176H53.3016C53.2316 18.3176 53.1668 18.2811 53.1305 18.2213L47.6527 9.18787C47.5719 9.05459 47.6678 8.88417 47.8237 8.88417H47.9286C48.039 8.88417 48.1286 8.97371 48.1286 9.08417V19.885C48.1286 19.9955 48.039 20.085 47.9286 20.085H45.6004Z" fill="#F1F1F5"/>
<path d="M73.4101 20.3059C72.2073 20.3059 71.0999 20.1071 70.0879 19.7094C69.0758 19.3118 68.1957 18.7595 67.4477 18.0525C66.6996 17.3308 66.1202 16.4913 65.7096 15.534C65.2989 14.5619 65.0935 13.5015 65.0935 12.3527C65.0935 11.2039 65.2989 10.1508 65.7096 9.19346C66.1202 8.2214 66.6996 7.38189 67.4477 6.67493C68.1957 5.95325 69.0758 5.39357 70.0879 4.99591C71.0999 4.59825 72.2 4.39941 73.3881 4.39941C74.5909 4.39941 75.6909 4.59825 76.6883 4.99591C77.7004 5.39357 78.5805 5.95325 79.3285 6.67493C80.0766 7.38189 80.6559 8.2214 81.0666 9.19346C81.4773 10.1508 81.6827 11.2039 81.6827 12.3527C81.6827 13.5015 81.4773 14.5619 81.0666 15.534C80.6559 16.5061 80.0766 17.3456 79.3285 18.0525C78.5805 18.7595 77.7004 19.3118 76.6883 19.7094C75.6909 20.1071 74.5982 20.3059 73.4101 20.3059ZM73.3881 17.7874C74.1655 17.7874 74.8842 17.6549 75.5443 17.3897C76.2043 17.1246 76.7763 16.7491 77.2604 16.263C77.7444 15.7623 78.1184 15.1879 78.3825 14.5398C78.6611 13.8771 78.8005 13.148 78.8005 12.3527C78.8005 11.5574 78.6611 10.8357 78.3825 10.1876C78.1184 9.52485 77.7444 8.95045 77.2604 8.46442C76.7763 7.96366 76.2043 7.58072 75.5443 7.31561C74.8842 7.0505 74.1655 6.91795 73.3881 6.91795C72.6107 6.91795 71.892 7.0505 71.2319 7.31561C70.5866 7.58072 70.0145 7.96366 69.5158 8.46442C69.0318 8.95045 68.6504 9.52485 68.3717 10.1876C68.1077 10.8357 67.9757 11.5574 67.9757 12.3527C67.9757 13.1333 68.1077 13.855 68.3717 14.5177C68.6504 15.1805 69.0318 15.7623 69.5158 16.263C69.9999 16.7491 70.5719 17.1246 71.2319 17.3897C71.892 17.6549 72.6107 17.7874 73.3881 17.7874Z" fill="#F1F1F5"/>
<path d="M91.6889 20.3059C90.4862 20.3059 89.3788 20.1145 88.3667 19.7315C87.3693 19.3339 86.4966 18.7816 85.7485 18.0746C85.0005 17.3529 84.4211 16.5061 84.0104 15.534C83.5997 14.5619 83.3943 13.5015 83.3943 12.3527C83.3943 11.2039 83.5997 10.1434 84.0104 9.17137C84.4211 8.19931 85.0005 7.3598 85.7485 6.65284C86.5112 5.93115 87.3986 5.37884 88.4107 4.99591C89.4228 4.59825 90.5302 4.39941 91.7329 4.39941C93.0384 4.39941 94.2118 4.61297 95.2532 5.04009C96.2484 5.44261 97.0939 6.02171 97.7895 6.7774C97.8612 6.85534 97.8563 6.97585 97.7806 7.04997L96.2529 8.54653C96.1745 8.62337 96.0489 8.62232 95.9693 8.54672C95.4075 8.0134 94.8021 7.61776 94.1531 7.3598C93.4637 7.06523 92.701 6.91795 91.8649 6.91795C91.0582 6.91795 90.3102 7.0505 89.6208 7.31561C88.9314 7.58072 88.3374 7.95629 87.8387 8.44232C87.34 8.92836 86.9513 9.50276 86.6726 10.1655C86.4086 10.8283 86.2765 11.5574 86.2765 12.3527C86.2765 13.1333 86.4086 13.855 86.6726 14.5177C86.9513 15.1805 87.34 15.7623 87.8387 16.263C88.3374 16.7491 88.9241 17.1246 89.5988 17.3897C90.2735 17.6549 91.0215 17.7874 91.8429 17.7874C92.6057 17.7874 93.339 17.6696 94.0431 17.4339C94.7014 17.2046 95.3289 16.8393 95.9257 16.3382C96.015 16.2632 96.1495 16.276 96.22 16.3689L97.5996 18.1847C97.6651 18.271 97.6502 18.394 97.5641 18.4598C96.7924 19.049 95.9048 19.5024 94.9012 19.8199C93.8451 20.1439 92.7743 20.3059 91.6889 20.3059ZM95.1837 17.9881C95.0848 17.9744 95.0112 17.8898 95.0112 17.79V12.3759C95.0112 12.2655 95.1007 12.1759 95.2112 12.1759H97.5174C97.6278 12.1759 97.7174 12.2655 97.7174 12.3759V18.11C97.7174 18.2314 97.6101 18.3248 97.4899 18.3081L95.1837 17.9881Z" fill="#F1F1F5"/>
<path d="M99.4004 20.085C99.2554 20.085 99.1586 19.9355 99.2179 19.8032L105.969 4.73855C106.001 4.66662 106.073 4.62034 106.152 4.62034H108.709C108.788 4.62034 108.859 4.66652 108.891 4.73833L115.664 19.803C115.723 19.9354 115.627 20.085 115.482 20.085H112.931C112.851 20.085 112.778 20.0373 112.747 19.9637L106.955 6.42336C106.899 6.29141 106.996 6.14471 107.139 6.14471H107.678C107.821 6.14471 107.918 6.29119 107.862 6.42312L102.092 19.9634C102.06 20.0372 101.988 20.085 101.908 20.085H99.4004ZM102.562 16.5061C102.424 16.5061 102.328 16.3712 102.372 16.2414L103.006 14.388C103.033 14.307 103.109 14.2526 103.195 14.2526H111.225C111.311 14.2526 111.387 14.307 111.415 14.388L112.048 16.2414C112.092 16.3712 111.996 16.5061 111.859 16.5061H102.562Z" fill="#F1F1F5"/>
<path fill-rule="evenodd" clip-rule="evenodd" d="M2 0C0.895431 0 0 0.895428 0 2V21.0966C0 22.2012 0.895431 23.0966 2 23.0966H26.7159L32.3646 27.7679C33.0166 28.307 34.0019 27.8433 34.0019 26.9973L34.0022 21.1296C34.0023 21.1186 34.0024 21.1076 34.0024 21.0966V2C34.0024 0.895431 33.107 0 32.0024 0H2ZM6.66686 10.043C7.21914 10.043 7.66686 10.4907 7.66686 11.043V11.3986C7.66686 12.4633 8.40427 13.6778 10.1297 14.7011C11.8224 15.705 14.2488 16.3694 17.0009 16.3694C19.7529 16.3694 22.1793 15.705 23.872 14.7011C25.5974 13.6778 26.3349 12.4633 26.3349 11.3986V11.043C26.3349 10.4907 26.7826 10.043 27.3349 10.043H28.0017C28.554 10.043 29.0017 10.4907 29.0017 11.043V11.3986C29.0017 13.828 27.3511 15.7767 25.2157 17.0431C23.0476 18.329 20.1402 19.0808 17.0009 19.0808C13.8615 19.0808 10.9541 18.329 8.78597 17.0431C6.65058 15.7767 5 13.828 5 11.3986V11.043C5 10.4907 5.44772 10.043 6 10.043H6.66686Z" fill="url(#paint0_linear_319_6575)"/>
<path d="M118.231 20.084C118.121 20.084 118.031 19.9945 118.031 19.884V18.2332C118.031 18.1872 118.047 18.1425 118.076 18.1068L127.739 6.25758C127.84 6.13359 128.039 6.17262 128.085 6.32565L128.227 6.7912C128.266 6.91971 128.17 7.04953 128.036 7.04953H118.385C118.275 7.04953 118.185 6.95998 118.185 6.84953V4.81936C118.185 4.7089 118.275 4.61936 118.385 4.61936H130.68C130.791 4.61936 130.88 4.7089 130.88 4.81936V6.47019C130.88 6.51625 130.864 6.56089 130.835 6.59659L121.167 18.4522C121.067 18.5749 120.871 18.5382 120.822 18.3876L120.669 17.9157C120.627 17.7865 120.723 17.6539 120.859 17.6539H130.966C131.077 17.6539 131.166 17.7434 131.166 17.8539V19.884C131.166 19.9945 131.077 20.084 130.966 20.084H118.231Z" fill="url(#paint1_linear_319_6575)"/>
<path d="M140.611 20.305C139.408 20.305 138.301 20.1061 137.289 19.7085C136.277 19.3108 135.396 18.7585 134.648 18.0515C133.9 17.3299 133.321 16.4903 132.91 15.533C132.5 14.5609 132.294 13.5005 132.294 12.3517C132.294 11.2029 132.5 10.1498 132.91 9.19249C133.321 8.22042 133.9 7.38091 134.648 6.67395C135.396 5.95227 136.277 5.3926 137.289 4.99493C138.301 4.59727 139.401 4.39844 140.589 4.39844C141.792 4.39844 142.892 4.59727 143.889 4.99493C144.901 5.3926 145.781 5.95227 146.529 6.67395C147.277 7.38091 147.857 8.22042 148.267 9.19249C148.678 10.1498 148.883 11.2029 148.883 12.3517C148.883 13.5005 148.678 14.5609 148.267 15.533C147.857 16.5051 147.277 17.3446 146.529 18.0515C145.781 18.7585 144.901 19.3108 143.889 19.7085C142.892 20.1061 141.799 20.305 140.611 20.305ZM140.589 17.7864C141.366 17.7864 142.085 17.6539 142.745 17.3888C143.405 17.1237 143.977 16.7481 144.461 16.2621C144.945 15.7613 145.319 15.1869 145.583 14.5388C145.862 13.8761 146.001 13.147 146.001 12.3517C146.001 11.5564 145.862 10.8347 145.583 10.1866C145.319 9.52387 144.945 8.94947 144.461 8.46344C143.977 7.96268 143.405 7.57974 142.745 7.31463C142.085 7.04953 141.366 6.91697 140.589 6.91697C139.811 6.91697 139.093 7.04953 138.433 7.31463C137.787 7.57974 137.215 7.96268 136.717 8.46344C136.233 8.94947 135.851 9.52387 135.573 10.1866C135.308 10.8347 135.176 11.5564 135.176 12.3517C135.176 13.1323 135.308 13.854 135.573 14.5168C135.851 15.1795 136.233 15.7613 136.717 16.2621C137.201 16.7481 137.773 17.1237 138.433 17.3888C139.093 17.6539 139.811 17.7864 140.589 17.7864Z" fill="url(#paint2_linear_319_6575)"/>
<path d="M149.611 20.084C149.466 20.084 149.369 19.9346 149.428 19.8022L156.18 4.73757C156.212 4.66565 156.283 4.61936 156.362 4.61936H158.92C158.998 4.61936 159.07 4.66555 159.102 4.73735L165.875 19.802C165.934 19.9344 165.837 20.084 165.692 20.084H163.141C163.061 20.084 162.989 20.0363 162.957 19.9627L157.166 6.42239C157.109 6.29043 157.206 6.14374 157.35 6.14374H157.888C158.032 6.14374 158.128 6.29021 158.072 6.42214L152.302 19.9624C152.271 20.0362 152.198 20.084 152.118 20.084H149.611ZM152.772 16.5051C152.635 16.5051 152.539 16.3702 152.583 16.2404L153.216 14.387C153.244 14.306 153.32 14.2516 153.405 14.2516H161.436C161.522 14.2516 161.598 14.306 161.625 14.387L162.259 16.2404C162.303 16.3702 162.207 16.5051 162.069 16.5051H152.772Z" fill="url(#paint3_linear_319_6575)"/>
<defs>
<linearGradient id="paint0_linear_319_6575" x1="0" y1="0" x2="34.675" y2="0.859382" gradientUnits="userSpaceOnUse">
<stop stop-color="#5097FA"/>
<stop offset="1" stop-color="#5363FF"/>
</linearGradient>
<linearGradient id="paint1_linear_319_6575" x1="118.031" y1="4.39844" x2="166.796" y2="7.39969" gradientUnits="userSpaceOnUse">
<stop stop-color="#5097FA"/>
<stop offset="1" stop-color="#5363FF"/>
</linearGradient>
<linearGradient id="paint2_linear_319_6575" x1="118.031" y1="4.39844" x2="166.796" y2="7.39969" gradientUnits="userSpaceOnUse">
<stop stop-color="#5097FA"/>
<stop offset="1" stop-color="#5363FF"/>
</linearGradient>
<linearGradient id="paint3_linear_319_6575" x1="118.031" y1="4.39844" x2="166.796" y2="7.39969" gradientUnits="userSpaceOnUse">
<stop stop-color="#5097FA"/>
<stop offset="1" stop-color="#5363FF"/>
</linearGradient>
</defs>
</svg>
