<svg width="24" height="25" viewBox="0 0 24 25" fill="none" xmlns="http://www.w3.org/2000/svg">
<path d="M11.9904 20.2095C11.7763 20.2095 11.5612 20.171 11.3452 20.0941C11.1291 20.0171 10.9391 19.8966 10.775 19.7325L9.33848 18.4268C7.56539 16.8101 5.98238 15.222 4.58943 13.6624C3.19648 12.1027 2.5 10.4319 2.5 8.64988C2.5 7.23066 2.97852 6.04253 3.93558 5.08548C4.89263 4.12843 6.08076 3.6499 7.49998 3.6499C8.30638 3.6499 9.10285 3.8358 9.8894 4.2076C10.6759 4.5794 11.3795 5.18325 12 6.01915C12.6205 5.18325 13.324 4.5794 14.1105 4.2076C14.8971 3.8358 15.6936 3.6499 16.5 3.6499C17.9192 3.6499 19.1073 4.12843 20.0644 5.08548C21.0214 6.04253 21.5 7.23066 21.5 8.64988C21.5 10.4511 20.7916 12.1406 19.375 13.7181C17.9583 15.2957 16.3788 16.8704 14.6365 18.4422L13.2154 19.7325C13.0513 19.8966 12.8596 20.0171 12.6404 20.0941C12.4211 20.171 12.2045 20.2095 11.9904 20.2095Z" fill="#FF0000"/>
</svg>
