<svg width="25" height="25" viewBox="0 0 25 25" fill="none" xmlns="http://www.w3.org/2000/svg">
<path d="M12.5 18.3206L7.44295 21.3582C7.25464 21.4678 7.06592 21.5138 6.87678 21.4964C6.68763 21.479 6.51639 21.4155 6.36307 21.3059C6.20977 21.1964 6.09146 21.0532 6.00813 20.8764C5.92479 20.6997 5.91145 20.5042 5.96813 20.2901L7.31049 14.5709L2.8459 10.7215C2.67925 10.5771 2.57302 10.4099 2.5272 10.2198C2.48138 10.0298 2.49345 9.84509 2.56343 9.66583C2.63343 9.48656 2.73426 9.34007 2.86592 9.22637C2.99757 9.11267 3.17755 9.03839 3.40586 9.00354L9.29782 8.49063L11.5851 3.09008C11.6684 2.88924 11.7947 2.74068 11.9638 2.6444C12.133 2.54813 12.3117 2.5 12.5 2.5C12.6883 2.5 12.867 2.54813 13.0362 2.6444C13.2053 2.74068 13.3316 2.88924 13.4149 3.09008L15.7022 8.49063L21.5941 9.00354C21.8224 9.03839 22.0024 9.11267 22.1341 9.22637C22.2657 9.34007 22.3666 9.48656 22.4366 9.66583C22.5065 9.84509 22.5186 10.0298 22.4728 10.2198C22.427 10.4099 22.3207 10.5771 22.1541 10.7215L17.6895 14.5709L19.0319 20.2901C19.0885 20.5042 19.0752 20.6997 18.9919 20.8764C18.9085 21.0532 18.7902 21.1964 18.6369 21.3059C18.4836 21.4155 18.3124 21.479 18.1232 21.4964C17.9341 21.5138 17.7454 21.4678 17.557 21.3582L12.5 18.3206Z" fill="#FFC83C"/>
</svg>
